<svg width="95" height="53" viewBox="0 0 95 53" fill="none" xmlns="http://www.w3.org/2000/svg">
<g clip-path="url(#clip0_329_139)">
<path fill-rule="evenodd" clip-rule="evenodd" d="M42.08 52.3757H40.0983C39.2866 44.65 37.4786 25.1639 37.3239 24.4496C37.0497 23.1575 40.1824 22.4078 40.4973 23.8935C40.7932 25.3056 41.7515 45.1788 42.08 52.3784V52.3757Z" fill="#CB9932"/>
<path fill-rule="evenodd" clip-rule="evenodd" d="M38.0053 52.3757H36.162C34.8373 43.6304 33.1813 35.2259 31.9271 26.4151C31.6855 24.8749 34.3133 24.2152 34.8563 25.8536C35.2363 27.004 37.2832 45.4078 38.008 52.3757H38.0053Z" fill="#CB9932"/>
<path fill-rule="evenodd" clip-rule="evenodd" d="M20.5581 52.3757C21.2314 52.3757 21.9046 52.3757 22.5778 52.3703C19.9256 44.7972 12.8349 24.9294 12.4576 24.1579C11.5563 22.296 8.95022 23.4164 9.3357 24.4442C9.65875 25.3029 17.6453 45.3179 20.5554 52.3757H20.5581Z" fill="#CB9932"/>
<path fill-rule="evenodd" clip-rule="evenodd" d="M24.6111 52.3757C25.2409 52.3757 25.8707 52.3757 26.5005 52.3703C23.9053 43.7967 21.6087 35.0623 18.9239 26.4233C18.0362 23.8281 15.4301 24.9785 15.8781 26.3715C16.0437 26.8895 22.2168 45.5441 24.6111 52.3757Z" fill="#CB9932"/>
<path fill-rule="evenodd" clip-rule="evenodd" d="M46.589 15.3718C46.247 15.7561 45.9375 16.1405 45.6579 16.5304L45.248 17.1056L44.8734 17.6835C44.3711 18.4577 43.9504 19.2237 43.5676 19.9979C43.1794 20.7694 42.8509 21.5382 42.5578 22.3097C42.422 22.6913 42.3433 23.0839 42.327 23.4655C42.3053 23.8499 42.3487 24.237 42.3922 24.6187C42.4926 25.3929 42.498 26.1644 42.5197 26.9331C42.555 27.7046 42.5849 28.4734 42.6338 29.2503L42.7831 31.5593L42.9188 33.871L43.8445 52.373H46.7112V15.3718H46.5917H46.589Z" fill="#CB9932"/>
<path fill-rule="evenodd" clip-rule="evenodd" d="M52.2953 23.4655C52.2762 23.0839 52.2002 22.6968 52.0645 22.3097C51.7713 21.5382 51.4401 20.7694 51.0547 19.9979C50.6719 19.2237 50.2511 18.4577 49.7489 17.6835L49.3716 17.1056L48.9562 16.5304C48.682 16.1405 48.3671 15.7561 48.0251 15.3718H47.9084V52.3757H50.775L51.7007 33.8738L51.8419 31.562L51.9858 29.2476C52.0346 28.4761 52.0699 27.7073 52.0998 26.9358C52.1269 26.1616 52.1269 25.3956 52.2301 24.6214C52.2735 24.2397 52.3115 23.8526 52.2953 23.4683V23.4655Z" fill="#CB9932"/>
<path fill-rule="evenodd" clip-rule="evenodd" d="M7.65535 25.5946C7.46804 25.2402 7.22643 24.8804 6.93325 24.5232C6.32245 23.8063 5.67364 23.0975 4.97598 22.3805C4.27559 21.6636 3.54535 20.9521 2.73909 20.2378L2.13372 19.7008L1.49035 19.1665C1.06143 18.8094 0.59994 18.455 0.108586 18.0951H0L16.0735 52.373H18.7773L11.6133 35.2313L10.7392 33.0941L9.87323 30.9514C9.58004 30.2344 9.28414 29.5202 8.97467 28.8059C8.66249 28.0944 8.3313 27.3775 8.09241 26.6632C7.96482 26.3088 7.83723 25.9517 7.65535 25.5919V25.5946Z" fill="#CB9932"/>
<path fill-rule="evenodd" clip-rule="evenodd" d="M23.6881 20.5159C23.4683 20.8458 23.2728 21.1783 23.1072 21.5109L22.8629 22.0071L22.6484 22.5032C22.3634 23.1711 22.1435 23.8336 21.9562 24.496C21.7716 25.1584 21.6331 25.8209 21.53 26.4888C21.4866 26.8186 21.4893 27.1485 21.5517 27.4811C21.6033 27.8136 21.7173 28.149 21.8259 28.4788C22.0566 29.1413 22.2059 29.8091 22.377 30.4716C22.548 31.134 22.7217 31.7965 22.9117 32.4616L23.4764 34.4544L24.0356 36.4472L28.3411 52.3757H30.8114L23.7967 20.5159H23.6909H23.6881Z" fill="#CB9932"/>
<path fill-rule="evenodd" clip-rule="evenodd" d="M30.1355 27.4811C30.0486 27.1485 29.9047 26.8186 29.7147 26.4888C29.3156 25.8209 28.884 25.1584 28.4089 24.496C27.9339 23.8335 27.4208 23.1711 26.8453 22.5032L26.4137 22.0071L25.9467 21.5109C25.6373 21.1783 25.2952 20.8457 24.9233 20.5104H24.8229L31.8376 52.3757H34.3106L31.6014 36.4472L31.2756 34.4544L30.9662 32.4671C30.8603 31.7992 30.7436 31.1367 30.6241 30.4743C30.4965 29.8119 30.3526 29.144 30.2956 28.4815C30.2603 28.1517 30.2223 27.8191 30.1355 27.4838V27.4811Z" fill="#CB9932"/>
<path fill-rule="evenodd" clip-rule="evenodd" d="M52.4255 52.3757H54.4045C55.2135 44.65 57.0242 25.1639 57.1762 24.4496C57.4558 23.1575 54.3231 22.4078 54.0082 23.8935C53.7069 25.3056 52.7486 45.1788 52.4255 52.3784V52.3757Z" fill="#CB9932"/>
<path fill-rule="evenodd" clip-rule="evenodd" d="M56.4948 52.3757H58.3435C59.6628 43.6304 61.3242 35.2259 62.5784 26.4151C62.82 24.8749 60.1949 24.2152 59.6492 25.8536C59.2692 27.004 57.2223 45.4078 56.4948 52.3757Z" fill="#CB9932"/>
<path fill-rule="evenodd" clip-rule="evenodd" d="M73.9393 52.3757C73.2715 52.3757 72.5928 52.3757 71.925 52.3703C74.5772 44.7972 81.6679 24.9294 82.0452 24.1579C82.9438 22.296 85.5499 23.4164 85.1671 24.4442C84.8495 25.3029 76.8575 45.3179 73.942 52.3757H73.9393Z" fill="#CB9932"/>
<path fill-rule="evenodd" clip-rule="evenodd" d="M69.8917 52.3757C69.2592 52.3757 68.6321 52.3757 68.005 52.3703C70.5975 43.7967 72.8968 35.0623 75.5789 26.4233C76.4666 23.8281 79.0727 24.9785 78.6275 26.3715C78.4619 26.8895 72.2887 45.5441 69.8944 52.3757H69.8917Z" fill="#CB9932"/>
<path fill-rule="evenodd" clip-rule="evenodd" d="M86.8529 25.5946C87.0321 25.2402 87.2737 24.8804 87.5696 24.5232C88.1804 23.8063 88.8237 23.0975 89.5241 22.3805C90.2245 21.6636 90.9547 20.9521 91.7664 20.2378L92.3691 19.7008L93.0125 19.1665C93.4414 18.8094 93.9056 18.455 94.3942 18.0951H94.5028L78.4293 52.373H75.7228L82.8868 35.2313L83.7609 33.0941L84.6269 30.9514C84.9146 30.2344 85.2187 29.5202 85.5281 28.8059C85.8376 28.0944 86.1715 27.3775 86.4077 26.6632C86.538 26.3088 86.6656 25.9517 86.8529 25.5919V25.5946Z" fill="#CB9932"/>
<path fill-rule="evenodd" clip-rule="evenodd" d="M70.812 20.5159C71.0346 20.8458 71.2273 21.1783 71.3983 21.5109L71.6427 22.0071L71.8517 22.5032C72.1449 23.1711 72.3539 23.8336 72.5412 24.496C72.7285 25.1584 72.867 25.8209 72.9756 26.4888C73.019 26.8186 73.0136 27.1485 72.9538 27.4811C72.8968 27.8136 72.7882 28.149 72.6797 28.4788C72.4435 29.1413 72.2996 29.8091 72.1286 30.4716C71.9576 31.134 71.7784 31.7965 71.5965 32.4616L71.0291 34.4544L70.4726 36.4472L66.1672 52.3757H63.6968L70.7142 20.5159H70.8147H70.812Z" fill="#CB9932"/>
<path fill-rule="evenodd" clip-rule="evenodd" d="M64.3673 27.4811C64.4596 27.1485 64.5981 26.8186 64.7881 26.4888C65.1845 25.8209 65.6188 25.1584 66.0939 24.496C66.5717 23.8335 67.0766 23.1711 67.6575 22.5032L68.0892 22.0071L68.5561 21.5109C68.8655 21.1783 69.2076 20.8457 69.5741 20.5104H69.6799L62.6598 52.3757H60.1895L62.9014 36.4472L63.2245 34.4544L63.5367 32.4671C63.6398 31.7992 63.7593 31.1367 63.876 30.4743C64.0036 29.8119 64.1475 29.144 64.2045 28.4815C64.2398 28.1517 64.2751 27.8191 64.3673 27.4838V27.4811Z" fill="#CB9932"/>
<path fill-rule="evenodd" clip-rule="evenodd" d="M52.5916 5.36052C49.0286 6.34696 48.2337 7.14736 47.2492 10.721C46.2669 7.14736 45.4699 6.34696 41.9112 5.36052C45.4699 4.37624 46.2669 3.57368 47.2492 0C48.2337 3.57368 49.0286 4.37624 52.5916 5.36052Z" fill="#E21F26"/>
</g>
<defs>
<clipPath id="clip0_329_139">
<rect width="95" height="53" fill="white"/>
</clipPath>
</defs>
</svg>
